<svg xmlns="http://www.w3.org/2000/svg" viewBox="0 0 420 300" role="img" aria-label="雰囲気を調合している作業台">
  <defs>
    <radialGradient id="glow" cx="50%" cy="44%" r="54%">
      <stop offset="0%" stop-color="#fff8de" stop-opacity="0.95"/>
      <stop offset="100%" stop-color="#fff8de" stop-opacity="0"/>
    </radialGradient>
    <linearGradient id="paper" x1="0" x2="0" y1="0" y2="1">
      <stop offset="0%" stop-color="#fffaf0"/>
      <stop offset="100%" stop-color="#f4ead8"/>
    </linearGradient>
    <linearGradient id="table" x1="0" x2="1" y1="0" y2="1">
      <stop offset="0%" stop-color="#d4b08a"/>
      <stop offset="100%" stop-color="#a87550"/>
    </linearGradient>
    <filter id="softShadow" x="-20%" y="-20%" width="140%" height="140%">
      <feDropShadow dx="0" dy="7" stdDeviation="6" flood-color="#6b4c33" flood-opacity="0.16"/>
    </filter>
    <pattern id="grain" width="18" height="18" patternUnits="userSpaceOnUse">
      <circle cx="3" cy="5" r="0.7" fill="#a57b5d" opacity="0.14"/>
      <circle cx="14" cy="10" r="0.55" fill="#7b654d" opacity="0.1"/>
      <circle cx="8" cy="16" r="0.45" fill="#c29a70" opacity="0.12"/>
    </pattern>
  </defs>

  <rect width="420" height="300" rx="24" fill="url(#paper)"/>
  <rect width="420" height="300" rx="24" fill="url(#grain)" opacity="0.55"/>
  <circle cx="210" cy="118" r="122" fill="url(#glow)"/>

  <g opacity="0.78">
    <rect x="52" y="38" width="78" height="58" rx="5" fill="#f7eddc" stroke="#c9b99e"/>
    <path d="M63 76 C78 58, 93 70, 116 48" fill="none" stroke="#7f9872" stroke-width="5" stroke-linecap="round" opacity="0.72"/>
    <circle cx="105" cy="55" r="9" fill="#e8bd72" opacity="0.8"/>
    <path d="M53 44 l18 -5" stroke="#b99068" stroke-width="7" stroke-linecap="round"/>
    <rect x="290" y="42" width="62" height="76" rx="6" fill="#d9d2bd" stroke="#bba98f"/>
    <path d="M304 64 h34 M304 79 h28 M304 94 h38" stroke="#f5f0e5" stroke-width="4" stroke-linecap="round" opacity="0.58"/>
    <path d="M301 43 l18 -5" stroke="#b99068" stroke-width="7" stroke-linecap="round"/>
  </g>

  <g filter="url(#softShadow)">
    <path d="M37 206 C86 184, 319 183, 382 205 L361 255 C286 273, 130 273, 56 255 Z" fill="url(#table)"/>
    <path d="M45 219 C112 234, 288 234, 372 217" fill="none" stroke="#8e5c3d" stroke-width="2" opacity="0.35"/>
  </g>

  <g transform="translate(150 139)" filter="url(#softShadow)">
    <ellipse cx="60" cy="52" rx="76" ry="28" fill="#f9efe1" stroke="#b79270" stroke-width="3"/>
    <ellipse cx="60" cy="46" rx="64" ry="18" fill="#ead2b7" opacity="0.7"/>
    <path d="M15 46 C43 61, 90 59, 111 46" fill="none" stroke="#b78964" stroke-width="2" opacity="0.55"/>
    <circle cx="38" cy="45" r="9" fill="#7fa28f" opacity="0.86"/>
    <circle cx="61" cy="47" r="10" fill="#d99484" opacity="0.84"/>
    <circle cx="82" cy="43" r="8" fill="#e2bc70" opacity="0.86"/>
    <path d="M77 24 l70 -34" stroke="#79543e" stroke-width="7" stroke-linecap="round"/>
    <path d="M77 24 l70 -34" stroke="#d5b894" stroke-width="3" stroke-linecap="round"/>
  </g>

  <g fill="none" stroke-linecap="round" opacity="0.9">
    <path d="M188 146 C150 102, 189 82, 165 51" stroke="#86a27c" stroke-width="13" opacity="0.55"/>
    <path d="M224 148 C259 109, 211 84, 245 54" stroke="#d98f7d" stroke-width="13" opacity="0.58"/>
    <path d="M205 140 C214 104, 197 82, 211 49" stroke="#dfbd67" stroke-width="9" opacity="0.5"/>
    <path d="M188 146 C150 102, 189 82, 165 51" stroke="#6f8b69" stroke-width="2" opacity="0.7"/>
    <path d="M224 148 C259 109, 211 84, 245 54" stroke="#b96f61" stroke-width="2" opacity="0.7"/>
  </g>

  <g opacity="0.88">
    <rect x="65" y="189" width="78" height="42" rx="7" fill="#f4e8d6" stroke="#bfa98c"/>
    <rect x="73" y="197" width="15" height="12" rx="3" fill="#d6a05f"/>
    <rect x="94" y="197" width="15" height="12" rx="3" fill="#8aa58e"/>
    <rect x="115" y="197" width="15" height="12" rx="3" fill="#d88c82"/>
    <rect x="73" y="214" width="15" height="12" rx="3" fill="#6f8eaa"/>
    <rect x="94" y="214" width="15" height="12" rx="3" fill="#c4a26e"/>
    <rect x="115" y="214" width="15" height="12" rx="3" fill="#7d6c9a"/>
    <rect x="282" y="194" width="72" height="46" rx="6" fill="#f7ecd9" stroke="#bba98f"/>
    <rect x="292" y="203" width="22" height="15" rx="3" fill="#d79d88"/>
    <rect x="321" y="203" width="22" height="15" rx="3" fill="#9aad85"/>
    <path d="M289 226 h58" stroke="#b99068" stroke-width="4" stroke-linecap="round"/>
  </g>

  <g opacity="0.88">
    <path d="M82 163 l16 -42" stroke="#6e4935" stroke-width="5" stroke-linecap="round"/>
    <path d="M98 163 l9 -47" stroke="#6e4935" stroke-width="5" stroke-linecap="round"/>
    <path d="M113 163 l-6 -42" stroke="#6e4935" stroke-width="5" stroke-linecap="round"/>
    <ellipse cx="99" cy="165" rx="30" ry="13" fill="#d0b392" stroke="#9b7556"/>
    <rect x="69" y="151" width="60" height="30" rx="12" fill="#c4a784" stroke="#956d4f"/>
    <circle cx="344" cy="151" r="20" fill="none" stroke="#9b7556" stroke-width="3"/>
    <path d="M333 151 C335 125, 344 112, 350 96 M347 150 C353 124, 366 115, 375 101" stroke="#8b9c67" stroke-width="3" stroke-linecap="round"/>
    <circle cx="349" cy="95" r="5" fill="#d98f7d"/>
    <circle cx="375" cy="101" r="4" fill="#e2bc70"/>
    <circle cx="334" cy="122" r="3" fill="#f2e7dc" stroke="#c9b99e"/>
  </g>

  <g opacity="0.95">
    <rect x="134" y="73" width="28" height="23" rx="4" fill="#ead7c8" stroke="#c9b99e" transform="rotate(-13 148 84)"/>
    <rect x="255" y="83" width="29" height="24" rx="4" fill="#d7e1d4" stroke="#b8c5ad" transform="rotate(12 269 95)"/>
    <rect x="242" y="31" width="27" height="23" rx="4" fill="#d9e3e5" stroke="#b6c5c8" transform="rotate(-16 255 42)"/>
    <rect x="142" y="38" width="24" height="22" rx="4" fill="#f6ded2" stroke="#d6b6a8" transform="rotate(14 154 49)"/>
    <path d="M119 117 c-12 3 -18 -8 -7 -15" fill="none" stroke="#8aa58e" stroke-width="3"/>
    <path d="M284 137 c12 -1 17 10 6 16" fill="none" stroke="#d98f7d" stroke-width="3"/>
  </g>

  <g fill="#c9975c" opacity="0.85">
    <path d="M205 34 l4 8 8 4 -8 4 -4 8 -4 -8 -8 -4 8 -4z"/>
    <path d="M283 61 l3 6 6 3 -6 3 -3 6 -3 -6 -6 -3 6 -3z"/>
    <path d="M142 132 l3 6 6 3 -6 3 -3 6 -3 -6 -6 -3 6 -3z"/>
  </g>
  <g fill="#6f8eaa" opacity="0.72">
    <circle cx="171" cy="79" r="3"/>
    <circle cx="267" cy="132" r="4"/>
    <circle cx="235" cy="31" r="2.5"/>
    <circle cx="124" cy="59" r="2.5"/>
  </g>
</svg>
