<svg width="220" height="220" viewBox="0 0 220 220" xmlns="http://www.w3.org/2000/svg">
  <rect width="220" height="220" fill="#F5F1E7"/>
  <g opacity="0.22" fill="#D8CFBF">
    <circle cx="22" cy="26" r="1.1"/><circle cx="58" cy="40" r="0.8"/><circle cx="91" cy="17" r="0.9"/>
    <circle cx="126" cy="35" r="1"/><circle cx="170" cy="24" r="0.8"/><circle cx="201" cy="48" r="1"/>
    <circle cx="34" cy="88" r="0.8"/><circle cx="72" cy="72" r="1"/><circle cx="108" cy="89" r="0.8"/>
    <circle cx="150" cy="76" r="1.1"/><circle cx="184" cy="92" r="0.9"/><circle cx="208" cy="73" r="0.8"/>
    <circle cx="18" cy="138" r="0.9"/><circle cx="59" cy="120" r="1"/><circle cx="97" cy="143" r="0.8"/>
    <circle cx="136" cy="127" r="1"/><circle cx="171" cy="147" r="0.9"/><circle cx="204" cy="132" r="0.8"/>
    <circle cx="28" cy="191" r="1"/><circle cx="66" cy="176" r="0.9"/><circle cx="104" cy="198" r="1"/>
    <circle cx="143" cy="183" r="0.8"/><circle cx="178" cy="202" r="1"/><circle cx="211" cy="186" r="0.9"/>
  </g>
</svg>
